Coordinates
version=1
nRows=18
nColumns=63
inDegrees=yes

Units are S.I. units (second, meters, Newtons, ...)
If the header above contains a line with 'inDegrees', this indicates whether rotational values are in degrees (yes) or radians (no).

endheader
time	pelvis_tilt	pelvis_list	pelvis_rotation	pelvis_tx	pelvis_ty	pelvis_tz	hip_flexion_r	hip_adduction_r	hip_rotation_r	knee_angle_r	knee_angle_r_beta	ankle_angle_r	subtalar_angle_r	mtp_angle_r	hip_flexion_l	hip_adduction_l	hip_rotation_l	knee_angle_l	knee_angle_l_beta	ankle_angle_l	subtalar_angle_l	mtp_angle_l	L5_S1_Flex_Ext	L5_S1_Lat_Bending	L5_S1_axial_rotation	L4_L5_Flex_Ext	L4_L5_Lat_Bending	L4_L5_axial_rotation	L3_L4_Flex_Ext	L3_L4_Lat_Bending	L3_L4_axial_rotation	L2_L3_Flex_Ext	L2_L3_Lat_Bending	L2_L3_axial_rotation	L1_L2_Flex_Ext	L1_L2_Lat_Bending	L1_L2_axial_rotation	L1_T12_Flex_Ext	L1_T12_Lat_Bending	L1_T12_axial_rotation	Abs_r3	Abs_r2	Abs_r1	Abs_t1	Abs_t2	neck_flexion	neck_bending	neck_rotation	arm_flex_r	arm_add_r	arm_rot_r	elbow_flex_r	pro_sup_r	wrist_flex_r	wrist_dev_r	arm_flex_l	arm_add_l	arm_rot_l	elbow_flex_l	pro_sup_l	wrist_flex_l	wrist_dev_l
1.750000	-1.576097	-0.446051	99.042104	0.135959	0.863699	0.728106	-1.713539	-2.312756	-25.889262	11.272870	0.196749	24.441903	18.858626	0.000000	1.558476	1.417158	8.436571	12.305812	0.214777	27.051785	-1.319776	0.000000	-0.117918	0.095677	0.561414	-0.218985	0.127250	0.596503	-0.193727	0.232629	0.596503	-0.134768	0.232629	0.491237	-0.109498	0.195104	0.456149	-0.067378	0.148203	0.421061	-0.842274	1.082315	3.122418	0.000000	0.000000	23.684623	6.252813	-7.712263	11.961108	-5.905749	151.020781	-0.170665	-0.371793	3.444430	-14.458537	16.058667	-4.346023	140.461839	2.972566	2.077986	-10.301096	-16.521481
1.766667	-1.554668	-0.646595	98.645890	0.136705	0.863640	0.730407	-1.192950	-2.380177	-25.518484	11.493987	0.200608	24.688723	18.881205	0.000000	2.048961	1.406748	7.859048	12.631197	0.220456	27.235441	-0.975841	0.000000	-0.114678	0.092326	0.702455	-0.212969	0.122794	0.746359	-0.188405	0.224482	0.746359	-0.131066	0.224482	0.614648	-0.106490	0.188271	0.570745	-0.065527	0.143013	0.526841	-0.819134	1.044411	3.906845	0.000000	0.000000	23.744473	6.266139	-8.144359	12.166805	-5.331550	150.122125	0.378027	1.447834	5.096769	-14.880070	16.978175	-2.665084	144.637178	2.400586	1.746113	-9.946540	-18.400554
1.783333	-1.498399	-0.871392	98.155404	0.137416	0.863374	0.732741	-0.620320	-2.421490	-25.015513	11.742721	0.204949	24.947869	18.903273	0.000000	2.566915	1.376085	7.323978	12.966019	0.226300	27.459009	-0.821856	0.000000	-0.111184	0.096531	0.866074	-0.206479	0.128386	0.920204	-0.182664	0.234704	0.920204	-0.127072	0.234704	0.757815	-0.103245	0.196845	0.703685	-0.063530	0.149526	0.649556	-0.794175	1.091973	4.816846	0.000000	0.000000	23.828854	6.127792	-8.531879	12.075313	-5.044125	147.130191	1.757852	4.084445	6.575884	-14.642615	17.891807	-0.921973	148.347267	1.896424	1.451340	-8.968558	-20.056166
1.800000	-1.422297	-1.109911	97.592607	0.138109	0.862936	0.735031	-0.021673	-2.444267	-24.405692	12.007346	0.209568	25.200812	18.915924	0.000000	3.083236	1.340607	6.893302	13.282986	0.231832	27.686989	-0.922431	0.000000	-0.108119	0.105139	1.042378	-0.200788	0.139835	1.107526	-0.177629	0.255636	1.107526	-0.123569	0.255636	0.912080	-0.100399	0.214400	0.846932	-0.061779	0.162861	0.781783	-0.772283	1.189358	5.797391	0.000000	0.000000	23.944383	5.890634	-8.878741	11.749201	-5.037868	142.346163	3.902158	6.882058	7.845969	-13.941466	18.773745	0.802949	151.460751	1.485324	1.241602	-7.251580	-21.479939
1.816667	-1.316564	-1.367057	97.003549	0.138708	0.862347	0.737220	0.595653	-2.435749	-23.752787	12.279037	0.214310	25.429424	18.925463	0.000000	3.608145	1.279142	6.467500	13.591212	0.237211	27.969279	-1.059935	0.000000	-0.102318	0.118562	1.221088	-0.190015	0.157688	1.297406	-0.168098	0.288272	1.297406	-0.116939	0.288272	1.068452	-0.095012	0.241772	0.992134	-0.058465	0.183653	0.915816	-0.730847	1.341198	6.791323	0.000000	0.000000	24.090691	5.597950	-9.193377	11.190765	-5.314022	135.711552	6.769263	9.754455	8.910485	-12.805657	19.591222	2.476453	154.047144	1.149410	1.062600	-4.837950	-22.618826
1.833333	-1.188303	-1.636058	96.401886	0.139229	0.861636	0.739272	1.218874	-2.398422	-23.075084	12.555753	0.219139	25.641557	18.932219	0.000000	4.121704	1.198240	6.092606	13.868174	0.242045	28.265837	-1.302612	0.000000	-0.093474	0.135022	1.394915	-0.173590	0.179579	1.482097	-0.153568	0.328293	1.482097	-0.106831	0.328293	1.220551	-0.086800	0.275337	1.133369	-0.053411	0.209149	1.046186	-0.667673	1.527397	7.758100	0.000000	0.000000	24.263186	5.284533	-9.490515	10.480957	-5.897716	127.136884	10.374960	12.621122	9.700615	-11.378556	20.331744	4.044441	156.097398	0.898189	0.942660	-1.690139	-23.500897
1.850000	-1.046277	-1.896498	95.819542	0.139635	0.860876	0.741117	1.811740	-2.338200	-22.409066	12.824396	0.223828	25.837027	18.932884	0.000000	4.596517	1.102451	5.778982	14.111544	0.246293	28.555620	-1.599789	0.000000	-0.082526	0.153389	1.553338	-0.153259	0.204008	1.650421	-0.135582	0.372950	1.650421	-0.094319	0.372950	1.359170	-0.076634	0.312791	1.262087	-0.047155	0.237600	1.165003	-0.589475	1.735169	8.639198	0.000000	0.000000	24.453890	4.994663	-9.744391	9.630082	-6.772434	116.431701	14.720819	15.450179	10.122468	-9.738006	20.959759	5.471556	157.584312	0.727137	0.903563	1.933831	-24.164733
1.866667	-0.886798	-2.145911	95.245594	0.139944	0.860068	0.742762	2.373196	-2.250307	-21.751980	13.085887	0.228392	26.023192	18.931435	0.000000	5.021874	0.988453	5.514132	14.305886	0.249685	28.808103	-1.989734	0.000000	-0.069770	0.173501	1.700435	-0.129570	0.230756	1.806712	-0.114625	0.421850	1.806712	-0.079740	0.421850	1.487880	-0.064788	0.353803	1.381603	-0.039867	0.268753	1.275326	-0.498359	1.962675	9.457307	0.000000	0.000000	24.669128	4.723256	-10.021456	8.694208	-7.989173	103.764128	19.817886	18.297721	10.072878	-7.990853	21.485999	6.771744	158.955601	0.545571	0.805669	6.068321	-24.612780
1.883333	-0.727879	-2.378105	94.698583	0.140163	0.859265	0.744165	2.885541	-2.151995	-21.119236	13.332387	0.232694	26.193900	18.927772	0.000000	5.381674	0.871366	5.301355	14.444022	0.252096	28.981286	-2.456162	0.000000	-0.055067	0.192806	1.829700	-0.102265	0.256432	1.944057	-0.090470	0.468788	1.944057	-0.062936	0.468788	1.600988	-0.051135	0.393169	1.486631	-0.031465	0.298656	1.372275	-0.393338	2.181057	10.176244	0.000000	0.000000	24.899438	4.524735	-10.299073	7.736809	-9.440184	89.912475	25.357835	21.180875	9.629265	-6.322823	21.896930	7.909839	160.121866	0.392927	0.737453	10.347848	-24.875490
1.900000	-0.584480	-2.599251	94.196095	0.140341	0.858466	0.745280	3.345759	-2.056785	-20.540639	13.558432	0.236639	26.351127	18.923712	0.000000	5.675252	0.766749	5.158817	14.521599	0.253450	29.051058	-3.015477	0.000000	-0.038069	0.208252	1.946666	-0.070698	0.276975	2.068333	-0.062543	0.506344	2.068333	-0.043509	0.506344	1.703333	-0.035351	0.424667	1.581666	-0.021753	0.322582	1.460000	-0.271922	2.355788	10.826775	0.000000	0.000000	25.151253	4.345319	-10.679940	6.722943	-10.890420	76.725675	30.681389	23.604183	8.967409	-4.645449	22.216778	8.883768	161.332357	0.259640	0.679169	14.657756	-24.964380
1.916667	-0.333908	-2.750140	93.717824	0.139996	0.857973	0.746334	3.702697	-1.858362	-20.016182	13.733447	0.239694	26.362100	18.925348	0.000000	5.858544	0.587600	5.202150	14.542742	0.253819	28.943662	-3.881762	0.000000	-0.024969	0.239664	2.088299	-0.046370	0.318753	2.218818	-0.041022	0.582719	2.218818	-0.028537	0.582719	1.827262	-0.023186	0.488723	1.696743	-0.014267	0.371240	1.566224	-0.178351	2.711129	11.614493	0.000000	0.000000	25.381088	4.059724	-11.355392	5.581989	-12.521380	64.856479	35.744891	25.572646	7.953518	-2.889636	22.986842	10.861982	168.468210	-2.496460	-3.805763	20.494446	-26.571683
1.933333	-0.173721	-2.919350	93.323738	0.139856	0.857351	0.747037	4.032878	-1.734042	-19.592308	13.902536	0.242645	26.419358	18.924710	0.000000	6.014695	0.488626	5.313283	14.529977	0.253596	28.737668	-4.796138	0.000000	-0.007546	0.255367	2.178980	-0.014013	0.339637	2.315166	-0.012397	0.620898	2.315166	-0.008624	0.620898	1.906607	-0.007007	0.520743	1.770421	-0.004312	0.395563	1.634235	-0.053898	2.888757	12.118833	0.000000	0.000000	25.641226	3.894294	-11.968481	4.605547	-14.037084	55.074463	40.457210	27.110528	6.525134	-1.097285	23.389480	11.987375	172.165641	-3.707500	-5.785118	25.301190	-27.183529
1.950000	-0.096535	-3.105665	93.036467	0.139878	0.856626	0.747429	4.331230	-1.679059	-19.288642	14.053559	0.245281	26.503224	18.920915	0.000000	6.155341	0.463257	5.479486	14.496701	0.253015	28.468732	-5.680569	0.000000	0.013984	0.257407	2.211496	0.025970	0.342352	2.349715	0.022975	0.625860	2.349715	0.015983	0.625860	1.935059	0.012986	0.524905	1.796841	0.007991	0.398724	1.658622	0.099888	2.911843	12.299678	0.000000	0.000000	25.910883	3.849932	-12.436661	3.830479	-15.375484	47.577773	44.687499	28.253220	4.801765	0.656270	23.440981	12.327287	172.728334	-3.541418	-5.550829	29.107101	-26.965315
1.966667	-0.098002	-3.310752	92.849501	0.140041	0.855817	0.747594	4.611665	-1.695227	-19.112788	14.196482	0.247775	26.622413	18.917991	0.000000	6.293740	0.513344	5.721400	14.447437	0.252155	28.152015	-6.554876	0.000000	0.038790	0.247428	2.192827	0.072036	0.329079	2.329879	0.063728	0.601596	2.329879	0.044333	0.601596	1.918724	0.036020	0.504555	1.781672	0.022164	0.383266	1.644620	0.277071	2.798953	12.195845	0.000000	0.000000	26.203630	3.905895	-12.752780	3.262887	-16.492167	42.410992	48.277636	28.839738	2.943848	2.184715	23.191287	11.969565	170.447670	-2.130337	-3.400782	31.802999	-26.090376
1.983333	-0.157767	-3.532848	92.775748	0.140254	0.854942	0.747558	4.872495	-1.769911	-19.065327	14.323701	0.249996	26.769655	18.913988	0.000000	6.442017	0.619473	5.995628	14.393484	0.251214	27.843700	-7.310582	0.000000	0.067444	0.229697	2.119860	0.125250	0.305497	2.252352	0.110803	0.558485	2.252352	0.077081	0.558485	1.854878	0.062628	0.468398	1.722386	0.038537	0.355801	1.589895	0.481744	2.598377	11.790027	0.000000	0.000000	26.490038	4.052432	-12.855123	2.904075	-17.344498	39.563930	51.084354	28.640216	1.309325	3.443060	22.606084	11.044389	165.659391	0.263331	0.491108	33.551534	-24.596694
2.000000	-0.279626	-3.751277	92.771920	0.140559	0.854051	0.747401	5.110985	-1.907069	-19.105711	14.451538	0.252227	26.960306	18.913582	0.000000	6.585515	0.772929	6.199964	14.333575	0.250168	27.590596	-7.833318	0.000000	0.095631	0.205129	2.012747	0.177596	0.272821	2.138543	0.157112	0.498750	2.138543	0.109296	0.498750	1.761153	0.088803	0.418299	1.635357	0.054643	0.317745	1.509560	0.683080	2.320459	11.194292	0.000000	0.000000	26.752053	4.235576	-12.783273	2.750073	-17.877460	38.680876	52.939452	27.686320	0.133981	4.391282	21.776645	9.657168	158.800864	3.496603	5.856687	34.294949	-22.565162
2.016667	-0.449559	-3.951130	92.801110	0.140965	0.853189	0.747169	5.311588	-2.083944	-19.171151	14.551935	0.253979	27.173233	18.904114	0.000000	6.714224	0.952855	6.271750	14.268379	0.249030	27.423072	-8.080299	0.000000	0.121359	0.176214	1.885593	0.225375	0.234365	2.003442	0.199380	0.428447	2.003442	0.138701	0.428447	1.649894	0.112694	0.359336	1.532044	0.069344	0.272956	1.414195	0.866853	1.993369	10.487101	0.000000	0.000000	26.969491	4.464855	-12.544174	2.838065	-18.062474	39.902618	53.682917	25.929336	-0.394809	4.749179	20.784498	7.906470	150.265349	7.430396	12.217688	33.942107	-20.066371
2.033333	-0.669813	-4.133969	92.899576	0.141438	0.852388	0.746932	5.480268	-2.309960	-19.298032	14.642317	0.255557	27.410332	18.892042	0.000000	6.839593	1.169070	6.271962	14.207930	0.247975	27.334841	-8.081137	0.000000	0.144190	0.142412	1.736761	0.267774	0.189408	1.845309	0.236889	0.346260	1.845309	0.164794	0.346260	1.519666	0.133894	0.290406	1.411118	0.082390	0.220596	1.302571	1.029932	1.610990	9.659344	0.000000	0.000000	27.114091	4.704706	-12.164816	3.189017	-17.811230	43.220762	53.189698	23.364978	-0.210057	4.438425	19.654315	5.902564	140.332750	11.898078	19.523769	32.621500	-17.213429
